<?xml version="1.0" encoding="UTF-8"?>
<svg xmlns="http://www.w3.org/2000/svg" xmlns:xlink="http://www.w3.org/1999/xlink" width="300" height="150" viewBox="0 0 300 150">
  <defs>
    <clipPath id="clip-path">
      <rect id="Rectangle_35" data-name="Rectangle 35" width="235" height="149" transform="translate(-0.273 0.026)" fill="#fff" stroke="#707070" stroke-width="1"></rect>
    </clipPath>
  </defs>
  <g id="investor" transform="translate(-337.5 -1913.025)">
    <rect id="Background" width="299" height="149" rx="16" transform="translate(338 1913.525)" fill="#231f20" stroke="rgba(0,0,0,0)" stroke-width="1"></rect>
    <g id="logo" transform="translate(370.273 1913.5)" clip-path="url(#clip-path)">
      <g id="Layer_1" data-name="Layer 1" transform="translate(0.176 43.472)">
        <path id="Path_42" data-name="Path 42" d="M222.341,64.3V100.24a.52.52,0,0,1-.513.513H218.09a5.127,5.127,0,0,1-4.312-2.348L196.815,72.189l.582,13.095V100.24a.52.52,0,0,1-.513.513h-4.942a.52.52,0,0,1-.513-.513V64.3a.52.52,0,0,1,.513-.513h3.717a5.148,5.148,0,0,1,4.312,2.341l16.962,26.176-.527-13.047V64.3a.513.513,0,0,1,.513-.513h4.942A.52.52,0,0,1,222.341,64.3Z" transform="translate(-105.146 -51.468)" fill="#fff"></path>
        <path id="Path_43" data-name="Path 43" d="M327.778,100.753h-5.23a.513.513,0,0,1-.479-.685l13.854-35.786a.78.78,0,0,1,.753-.493h6.551a.78.78,0,0,1,.719.493l13.814,35.786a.513.513,0,0,1-.479.685h-5.23a.52.52,0,0,1-.486-.329L340.4,70.99a.513.513,0,0,0-.965,0l-11.164,29.434A.52.52,0,0,1,327.778,100.753Z" transform="translate(-160.073 -51.468)" fill="#fff"></path>
        <path id="Path_44" data-name="Path 44" d="M425.35,99.925,414.959,86.652c5.866-1.109,9.3-5.065,9.3-11.137,0-6.975-4.538-11.726-12.568-11.726H397.2a.767.767,0,0,0-.767.767h0a4.929,4.929,0,0,0,4.928,4.928h9.727c4.853,0,7.18,2.485,7.18,6.072s-2.273,6.161-7.18,6.161H397.2a.774.774,0,0,0-.767.773v17.8a.513.513,0,0,0,.513.513h4.942a.52.52,0,0,0,.513-.513V86.974h5.7l9.015,11.767a5.141,5.141,0,0,0,4.107,2.012h3.751a.513.513,0,0,0,.376-.828Z" transform="translate(-191.357 -51.468)" fill="#fff"></path>
        <path id="Path_45" data-name="Path 45" d="M287.835,63.79H264.9a.685.685,0,0,0-.685.685h0a5.017,5.017,0,0,0,5.017,5.017h18.6a.507.507,0,0,0,.513-.513V64.3A.513.513,0,0,0,287.835,63.79Zm0,31.262H270.722a.52.52,0,0,1-.513-.513V85.27a.513.513,0,0,1,.513-.513h15.819a.513.513,0,0,0,.513-.513V79.533a.513.513,0,0,0-.513-.513H264.986a.773.773,0,0,0-.767.773V99.952a.767.767,0,0,0,.767.773h22.849a.513.513,0,0,0,.513-.513V95.537a.507.507,0,0,0-.513-.486Z" transform="translate(-135.757 -51.468)" fill="#fff"></path>
        <path id="Path_46" data-name="Path 46" d="M91.976,45.655,79.093,64.773a1.369,1.369,0,0,0,2.054,1.8L93.824,55.621a.507.507,0,0,1,.849.383V90.428a.513.513,0,0,1-.9.329L55.436,44.895a6.564,6.564,0,0,0-5.011-2.368H49.091a6.564,6.564,0,0,0-6.564,6.564V97.568a6.564,6.564,0,0,0,6.564,6.564h0A6.564,6.564,0,0,0,54.683,101L67.566,81.886a1.369,1.369,0,0,0-2.054-1.8L52.835,91.038a.507.507,0,0,1-.849-.383V56.265a.513.513,0,0,1,.9-.329L91.223,101.8a6.564,6.564,0,0,0,5.017,2.327h1.369a6.564,6.564,0,0,0,6.564-6.564V49.091a6.564,6.564,0,0,0-6.606-6.564h0a6.564,6.564,0,0,0-5.592,3.128Z" transform="translate(-42.526 -42.526)" fill="#fff"></path>
      </g>
    </g>
  </g>
</svg>
