<?xml version="1.0" encoding="UTF-8"?>
<svg xmlns="http://www.w3.org/2000/svg" xmlns:xlink="http://www.w3.org/1999/xlink" width="300" height="150" viewBox="0 0 300 150">
  <defs>
    <clipPath id="clip-path">
      <rect id="Rectangle_36" data-name="Rectangle 36" width="233" height="149" transform="translate(0.373 0.5)" fill="#fff" stroke="#707070" stroke-width="1"></rect>
    </clipPath>
  </defs>
  <g id="investor" transform="translate(-967.5 -1913)">
    <rect id="Background" width="299" height="149" rx="16" transform="translate(968 1913.5)" fill="#231f20" stroke="rgba(0,0,0,0)" stroke-width="1"></rect>
    <g id="logo" transform="translate(1000.627 1913)" clip-path="url(#clip-path)">
      <g id="tacen-logo-white" transform="translate(-0.169 43.615)">
        <path id="Path_47" data-name="Path 47" d="M168.178,23.046V56.782h-9.492V23.046H147.36V14.627h32.155v8.419Z" transform="translate(-61.977 -7.199)" fill="#fff"></path>
        <path id="Path_48" data-name="Path 48" d="M221.624,64.543l-.634-1.961a18.9,18.9,0,0,1-8.8,2.6c-5.7,0-8.039-4.118-8.039-9.365,0-6.205,2.849-8.673,9.181-8.673h6.643V44.8c0-3.172-.565-4.244-5.444-4.244a42.721,42.721,0,0,0-8.362.888l-1.2-6.839a43.232,43.232,0,0,1,11.072-1.522c10.7,0,13.044,3.229,13.044,11.776V64.543ZM219.986,53.47h-4.371c-1.961,0-2.722.508-2.722,2.214s.692,2.4,2.468,2.4a10.364,10.364,0,0,0,4.625-1.073Z" transform="translate(-85.862 -14.96)" fill="#fff"></path>
        <path id="Path_49" data-name="Path 49" d="M266.151,52.767c0,3.16,1.326,4.625,5.006,4.625a26.224,26.224,0,0,0,6.332-.761l1.142,7.6a33.076,33.076,0,0,1-7.474.946c-10,0-14.117-3.737-14.117-12.537V45.616c0-8.8,4.118-12.537,14.117-12.537a33.08,33.08,0,0,1,7.474.946l-1.142,7.6a32.348,32.348,0,0,0-6.332-.761c-3.668,0-5.006,1.453-5.006,4.625Z" transform="translate(-108.106 -14.96)" fill="#fff"></path>
        <path id="Path_50" data-name="Path 50" d="M310.511,52.337v.888c0,3.541,1.4,4.5,5.571,4.5a36.144,36.144,0,0,0,9.365-1.326l1.327,6.839a36.676,36.676,0,0,1-11.58,1.961c-10,0-13.806-4.937-13.806-12.537V45.44c0-6.643,2.976-12.341,13.229-12.341s12.469,6.078,12.469,12.791v6.459H310.511Zm7.97-8.166c0-2.157-.634-3.921-3.794-3.921s-4.175,1.776-4.175,3.921V45.5h7.981V44.171Z" transform="translate(-126.758 -14.968)" fill="#fff"></path>
        <path id="Path_51" data-name="Path 51" d="M375.212,64.543V44.163A1.948,1.948,0,0,0,373,41.948c-1.649,0-4.683,1.142-6.642,2.214v20.38h-9.112V33.714h6.77l.946,2.341a31.135,31.135,0,0,1,12.284-2.976c5.259,0,7.092,3.921,7.092,9.873V64.543Z" transform="translate(-150.25 -14.96)" fill="#fff"></path>
        <path id="Path_52" data-name="Path 52" d="M33.491,61.011l-2.121-1.22v-.006Z" transform="translate(-13.193 -26.192)" fill="#fff"></path>
        <path id="Path_53" data-name="Path 53" d="M58.044,31.725V68.1L44.7,75.8,31.37,68.1V48.622l1.479.85,2.711,1.57,4.307,2.491V63.2l3.081,1.777L44.7,65.986,49.539,63.2V36.635L46,34.592l4.184-2.419L54.5,29.682Z" transform="translate(-13.194 -13.531)" fill="#fff"></path>
        <path id="Path_54" data-name="Path 54" d="M33.491,61.011l-2.121-1.22v-.006Z" transform="translate(-13.193 -26.192)" fill="#fff"></path>
        <path id="Path_55" data-name="Path 55" d="M33.491,61.011l-2.121-1.22v-.006Z" transform="translate(-13.193 -26.192)" fill="#fff"></path>
        <path id="Path_56" data-name="Path 56" d="M33.491,61.012l-2.121-1.219v-.007Z" transform="translate(-13.193 -26.192)" fill="#fff"></path>
        <path id="Path_57" data-name="Path 57" d="M35.048,31.243v9.814L31.506,43.1l-3.535-2.043-1.3-.752L23.015,38.19,20.3,36.627H20.3L18.176,35.4l-1.3-.746-3.542-2.043-2.128-1.233L0,24.912V9.513L13.337,1.807l11.216,6.48,2.121,1.226,3.542,2.043-7.551,4.359h-.007l-.947.551L20.3,15.649l-2.121-1.232-4.839-2.789L8.5,14.417V20l4.833,2.8,2.121,1.226,1.421.817,1.3.752L21.835,27.7l2.718,1.57L26.674,30.5l1.3.746,3.535,2.043Z" transform="translate(0 -1.807)" fill="#fff"></path>
        <path id="Path_58" data-name="Path 58" d="M76.213,9.513v15.4L65,31.379l-2.121,1.233-3.535,2.043V24.834l1.408-.811L62.876,22.8,67.715,20V14.417l-4.839-2.789-4.833,2.789-2.128,1.232-1.414.817-1.3.746-3.665,2.108-2.711,1.57-2.121,1.226H44.7l-1.291.746-3.542,2.05V29l-1.479-.856-2.712-1.563-4.307-2.491V20L34.9,17.959l1.3-.746h.007L44.7,12.3l1.3-.746L62.876,1.807Z" transform="translate(-13.193 -1.807)" fill="#fff"></path>
      </g>
    </g>
  </g>
</svg>
